# xmcd
#
# Track frame offsets:
#	150
#	5209
#	12706
#	21462
#	34670
#	45175
#	52885
#	62716
#	69090
#	76098
#	82545
#	92367
#	98227
#	108743
#	115053
#	126599
#	139162
#
# Disc length: 2004 seconds
#
# Revision: 0
# Processed by: cddbd v1.5PL3 Copyright (c) Steve Scherf et al.
# Submitted via: audiograbber 1.82.02
#
DISCID=d207d211
DTITLE=Martin Stehlik - Kniham a labutim
DYEAR=2002
DGENRE=Bluegrass
TTITLE0=Kralovna Tequilla
TTITLE1=Wild West Ride
TTITLE2=Joyful Jumper Jack
TTITLE3=Rano v Hobitine
TTITLE4=Pro malou princeznu
TTITLE5=Vecer s latakii
TTITLE6=Skaly na pobrezi
TTITLE7=Ty, ja a Towr Bridge
TTITLE8=Torino
TTITLE9=V nehlubokych vodach
TTITLE10=Kniham a labutim
TTITLE11=Amatemi ben mio
TTITLE12=Crazy Joe Clark
TTITLE13=Pod rozkvetlou tresni
TTITLE14=Kocici oci
TTITLE15=Domu
TTITLE16=Jahodova zeme
EXTD=
EXTT0=
EXTT1=
EXTT2=
EXTT3=
EXTT4=
EXTT5=
EXTT6=
EXTT7=
EXTT8=
EXTT9=
EXTT10=
EXTT11=
EXTT12=
EXTT13=
EXTT14=
EXTT15=
EXTT16=
PLAYORDER=
